<?xml version="1.0" standalone="no"?>
<!DOCTYPE svg PUBLIC "-//W3C//DTD SVG 20010904//EN"
 "http://www.w3.org/TR/2001/REC-SVG-20010904/DTD/svg10.dtd">
<svg version="1.0" xmlns="http://www.w3.org/2000/svg"
 width="352.000000pt" height="424.000000pt" viewBox="0 0 352.000000 424.000000"
 preserveAspectRatio="xMidYMid meet">

<g transform="translate(0.000000,424.000000) scale(0.100000,-0.100000)"
fill="#000000" stroke="none">
<path d="M1050 3790 c-371 -247 -759 -505 -862 -572 l-187 -123 -1 -1547 0
-1548 1760 0 1760 0 0 1548 -1 1547 -292 191 c-253 166 -701 460 -1287 845
-103 68 -174 109 -190 108 -16 0 -275 -166 -700 -449z m967 177 c144 -94 495
-325 780 -512 284 -187 541 -356 570 -375 l53 -35 0 -1482 0 -1483 -1660 0
-1660 0 0 1483 0 1482 508 337 c279 185 649 431 822 547 173 115 317 210 320
210 3 0 123 -77 267 -172z"/>
<path d="M753 2303 c-16 -43 -63 -167 -103 -277 -56 -150 -79 -200 -94 -206
-15 -6 -2 -8 39 -8 33 1 48 3 33 5 -34 5 -34 9 1 103 l27 75 84 0 83 0 23 -67
c12 -36 25 -75 29 -86 5 -17 1 -21 -22 -25 -15 -2 31 -4 102 -5 72 0 121 3
110 7 -15 6 -44 73 -121 282 -100 273 -101 274 -131 277 -30 3 -32 1 -60 -75z
m57 -275 c0 -4 -31 -8 -70 -8 -38 0 -70 3 -70 7 0 3 17 51 37 107 l37 100 33
-99 c18 -55 33 -103 33 -107z"/>
<path d="M1260 2365 c-128 -41 -196 -177 -170 -341 6 -36 17 -78 25 -93 35
-67 125 -121 202 -121 29 0 34 -3 30 -17 -36 -126 -88 -297 -91 -300 -6 -6
-247 -26 -252 -20 -6 6 28 140 56 221 24 70 24 66 5 66 -14 0 -55 -116 -86
-243 -13 -52 -18 -57 -68 -72 -19 -6 -36 -16 -39 -24 -3 -10 5 -12 38 -6 l42
7 -7 -43 c-4 -24 -16 -82 -27 -129 -24 -104 -36 -240 -20 -240 18 0 23 18 26
88 4 77 53 311 70 329 12 13 232 37 248 27 5 -3 7 -13 3 -22 -3 -8 -26 -114
-50 -234 -25 -120 -49 -227 -55 -238 -14 -26 -13 -40 4 -40 19 0 29 32 76 260
22 107 46 215 53 240 13 45 13 45 70 54 39 5 57 13 57 22 0 12 -10 13 -52 8
l-51 -7 6 38 c3 21 23 90 43 154 l36 117 57 12 c73 15 104 15 119 0 9 -9 12
14 12 104 0 103 2 117 18 121 9 3 -35 5 -98 4 -63 0 -102 -2 -86 -4 l28 -5 -4
-99 c-2 -58 -9 -104 -16 -111 -20 -20 -23 -3 -7 37 9 20 14 39 11 42 -10 10
-27 -10 -43 -48 -8 -21 -21 -39 -28 -39 -23 0 -63 40 -79 80 -35 88 -30 335 9
411 17 32 62 59 97 59 40 0 84 -36 129 -105 24 -36 45 -61 47 -55 3 7 1 44 -3
83 l-6 72 -42 1 c-23 1 -76 5 -117 8 -53 4 -88 1 -120 -9z"/>
<path d="M1830 2365 c-57 -18 -115 -66 -139 -114 -30 -57 -43 -150 -32 -218
13 -79 24 -105 66 -152 63 -70 145 -83 343 -55 27 4 48 2 57 -6 13 -11 15 2
15 103 0 102 2 116 18 120 9 3 -35 5 -98 4 -63 0 -103 -2 -87 -4 l27 -4 -1
-82 c-1 -118 -7 -131 -53 -135 -82 -7 -122 58 -132 214 -11 172 20 294 81 322
63 29 114 2 176 -93 24 -36 45 -61 47 -55 3 7 1 44 -3 83 l-6 72 -37 1 c-20 1
-73 4 -117 8 -57 4 -93 2 -125 -9z"/>
<path d="M2243 2363 l27 -4 -2 -267 -3 -266 -25 -7 c-14 -4 31 -7 100 -7 69 1
115 3 103 5 l-23 4 0 269 0 269 23 4 c12 2 -34 4 -103 4 -69 0 -113 -2 -97 -4z"/>
<path d="M2523 2363 l27 -4 0 -265 c0 -257 -1 -264 -20 -264 -11 0 -20 -4 -20
-10 0 -6 78 -10 215 -10 l215 0 0 39 c0 21 3 59 6 85 8 57 -5 58 -31 3 -30
-60 -102 -107 -166 -107 l-49 0 0 130 0 130 28 0 c39 0 71 -26 93 -74 l19 -41
0 120 0 120 -19 -42 c-22 -46 -45 -63 -91 -63 l-31 0 3 123 3 122 32 3 c18 2
53 -6 77 -17 35 -15 51 -31 73 -70 26 -47 53 -71 39 -35 -3 9 -6 42 -6 75 l0
59 -212 -1 c-117 -1 -201 -4 -185 -6z"/>
<path d="M2112 1515 c-28 -20 -52 -66 -52 -100 0 -32 -63 -109 -124 -154 -52
-36 -72 -39 -79 -10 -6 22 6 111 22 166 17 59 -8 47 -102 -51 -101 -105 -134
-120 -124 -60 3 20 16 56 28 80 26 55 17 70 -19 28 -32 -37 -90 -61 -167 -70
-30 -4 -55 -8 -55 -9 0 -1 6 -18 14 -36 12 -29 12 -39 0 -67 -11 -28 -18 -33
-41 -30 -26 3 -28 6 -27 48 0 55 29 118 61 133 28 12 30 27 5 27 -38 0 -101
-103 -102 -165 0 -58 42 -89 95 -69 23 9 45 57 45 98 0 31 4 36 28 42 29 6 66
18 95 29 16 7 17 2 11 -49 -5 -45 -4 -57 9 -62 23 -8 75 23 139 84 l58 55 -1
-72 c-1 -84 11 -106 54 -97 34 7 115 64 151 107 14 16 27 26 29 22 3 -5 8 -33
12 -64 l7 -57 -51 -56 c-53 -58 -67 -90 -56 -125 8 -27 48 -28 74 -2 18 18 44
81 55 133 4 19 30 44 90 87 46 34 86 61 88 61 1 0 1 -24 0 -54 -6 -86 38 -116
120 -82 63 27 228 166 228 193 0 7 -3 13 -6 13 -4 0 -44 -34 -91 -75 -128
-114 -209 -145 -223 -85 -10 37 -2 49 42 67 53 21 108 87 108 130 0 21 -6 36
-15 39 -24 10 -73 -16 -104 -53 -15 -18 -72 -65 -127 -103 -113 -80 -105 -82
-124 43 -10 71 -10 81 7 110 11 18 32 36 49 42 17 6 32 15 33 20 3 17 -43 17
-67 0z m321 -91 c3 -4 0 -19 -8 -34 -21 -41 -105 -100 -105 -74 0 15 43 75 67
94 27 21 36 24 46 14z m-390 -352 c-11 -14 -25 -28 -31 -30 -22 -7 -12 36 16
69 26 32 27 33 30 10 2 -13 -5 -35 -15 -49z"/>
</g>
</svg>
